<svg width="224" height="301" viewBox="0 0 224 301" fill="none" xmlns="http://www.w3.org/2000/svg">
<path d="M97.6936 216.104C98.4105 215.713 98.8668 214.996 98.9971 214.148V208.869C98.4105 209.195 98.0195 210.173 97.8239 211.867L97.7588 212.454C97.6284 212.91 97.3025 213.105 96.7159 213.105C96.1293 213.105 95.8035 212.845 95.6731 212.389V207.044C95.8035 206.588 96.1293 206.327 96.7159 206.327C97.3025 206.327 97.6284 206.523 97.7588 207.044V207.761C98.2802 206.783 98.9319 206.327 99.7141 206.392H100.431C101.213 206.327 101.8 206.783 102.321 207.761V207.044C102.452 206.588 102.777 206.327 103.364 206.327C103.951 206.327 104.276 206.523 104.407 207.044V212.389C104.276 212.845 103.951 213.105 103.364 213.105C102.777 213.105 102.452 212.91 102.321 212.454L102.256 211.867C102.06 210.238 101.669 209.26 101.083 208.869V214.214C101.213 215.061 101.669 215.778 102.386 216.169C101.669 216.56 101.213 217.277 101.083 218.124V223.86H102.06C102.517 223.99 102.777 224.316 102.777 224.903C102.777 225.489 102.517 225.815 102.06 225.945H98.0195C97.5632 225.815 97.3025 225.489 97.3025 224.903C97.3025 224.316 97.4981 223.925 98.0195 223.86H98.9971V218.124C98.932 217.277 98.4105 216.56 97.6936 216.104Z" fill="#C99C49"/>
<path d="M106.753 216.104C107.47 215.713 107.926 214.996 108.057 214.148V208.478H107.079C106.623 208.348 106.362 208.022 106.362 207.435C106.362 206.848 106.558 206.523 107.079 206.392H111.185C111.642 206.523 111.837 206.848 111.837 207.435C111.837 208.022 111.642 208.413 111.12 208.478H110.142V214.996H114.509V208.478H113.532C113.075 208.348 112.815 208.022 112.815 207.435C112.815 206.848 113.01 206.523 113.466 206.392H117.573C118.029 206.523 118.29 206.848 118.29 207.435C118.29 208.022 118.094 208.348 117.573 208.478H116.595V214.148C116.725 214.996 117.182 215.713 117.899 216.104C117.182 216.495 116.725 217.212 116.595 218.059V223.795H117.573C118.029 223.925 118.29 224.251 118.29 224.837C118.29 225.424 118.094 225.75 117.573 225.88H113.532C113.075 225.75 112.88 225.424 112.88 224.837C112.88 224.251 113.141 223.925 113.597 223.795H114.574V217.212H110.208V223.729H111.185C111.642 223.86 111.902 224.186 111.902 224.772C111.902 225.359 111.707 225.685 111.25 225.815H107.144C106.688 225.685 106.427 225.359 106.427 224.772C106.427 224.186 106.623 223.795 107.144 223.729H108.122V217.994C107.926 217.212 107.47 216.495 106.753 216.104Z" fill="#C99C49"/>
<path d="M120.636 216.104C121.353 215.713 121.809 214.996 121.939 214.148V208.478H120.962C120.506 208.348 120.245 208.022 120.245 207.435C120.245 206.848 120.44 206.523 120.962 206.392H125.785C126.437 206.327 127.088 206.783 127.74 207.761V207.044C127.871 206.588 128.196 206.327 128.783 206.327C129.37 206.327 129.696 206.523 129.826 207.044V212.389C129.696 212.845 129.37 213.105 128.783 213.105C128.196 213.105 127.871 212.91 127.74 212.454L127.675 211.867C127.088 209.781 126.502 208.673 125.785 208.543H124.025V215.061H127.545C128.001 215.191 128.262 215.517 128.262 216.169C128.262 216.821 128.066 217.146 127.61 217.277H124.025V223.795H125.785C126.502 223.664 127.088 222.556 127.675 220.471L127.74 219.884C127.871 219.428 128.196 219.232 128.783 219.232C129.37 219.232 129.696 219.428 129.826 219.949V225.294C129.696 225.75 129.37 226.011 128.783 226.011C128.196 226.011 127.871 225.75 127.74 225.294V224.577C127.088 225.554 126.437 226.011 125.785 225.945H120.962C120.506 225.815 120.245 225.489 120.245 224.903C120.245 224.316 120.44 223.925 120.962 223.86H121.939V218.124C121.874 217.212 121.353 216.495 120.636 216.104Z" fill="#C99C49"/>
<path d="M8.27044 270.852L6.44548 258.208C5.98924 256.644 4.81605 255.34 3.2518 254.754C4.55534 253.776 5.33747 252.212 5.33747 250.582L3.64286 238.85H1.55719C0.57953 238.59 0.123291 237.873 0.123291 236.634C0.123291 235.396 0.57953 234.679 1.55719 234.418H10.1606C11.0731 234.679 11.5293 235.396 11.5293 236.634C11.5293 237.873 11.0731 238.59 10.0954 238.85H8.07491L9.70434 250.582C10.0302 251.951 11.0731 253.059 12.4418 253.45C11.3338 254.297 10.6168 255.601 10.6168 257.035L12.6373 270.461L17.1997 238.85H15.1141C14.1364 238.59 13.6802 237.873 13.6802 236.634C13.6802 235.396 14.1364 234.679 15.0489 234.418H23.6523C24.6299 234.679 25.0862 235.396 25.0862 236.634C25.0862 237.873 24.6299 238.59 23.6523 238.85H21.5666L26.129 270.461L28.1495 257.035C28.1495 255.601 27.4325 254.297 26.3245 253.45C27.6933 253.059 28.7361 251.951 29.1272 250.582L30.7566 238.85H28.6709C27.6933 238.59 27.237 237.873 27.237 236.634C27.237 235.396 27.6933 234.679 28.6057 234.418H37.2091C38.1868 234.679 38.643 235.396 38.643 236.634C38.643 237.873 38.1868 238.59 37.2091 238.85H35.1235L33.4289 250.582C33.494 252.212 34.211 253.711 35.5145 254.754C33.9503 255.34 32.7771 256.644 32.3208 258.273L30.4959 270.918H32.5816C33.5592 271.178 34.0154 271.895 34.0154 273.134C34.0154 274.372 33.5592 275.089 32.5816 275.35H25.2817C23.2612 275.48 22.088 273.981 21.7621 270.918L19.3506 254.232L16.939 270.918C16.6131 273.981 15.4399 275.415 13.4194 275.35H6.18477C5.20712 275.089 4.75088 274.372 4.75088 273.134C4.75088 271.895 5.20712 271.178 6.18477 270.918L8.27044 270.852Z" fill="#C99C49"/>
<path d="M42.5537 254.819C43.9876 253.972 45.0304 252.473 45.2259 250.843V238.916H43.1403C42.1626 238.655 41.7064 237.938 41.7064 236.7C41.7064 235.461 42.1626 234.744 43.1403 234.484H51.7436C52.6561 234.744 53.1124 235.461 53.1124 236.7C53.1124 237.938 52.6561 238.655 51.6785 238.916H49.658V250.843C49.8535 252.538 50.8312 253.972 52.3302 254.819C50.8963 255.666 49.9187 257.165 49.658 258.795V270.787H51.6785C52.6561 271.048 53.1124 271.765 53.1124 273.003C53.1124 274.242 52.6561 274.959 51.7436 275.219H43.1403C42.1626 274.959 41.7064 274.242 41.7064 273.003C41.7064 271.765 42.1626 271.048 43.1403 270.787H45.1608V258.86C44.9652 257.165 43.9876 255.666 42.5537 254.819Z" fill="#C99C49"/>
<path d="M58.0658 254.949C59.4997 254.102 60.5426 252.603 60.7381 250.973V238.981H58.6524C57.6748 238.72 57.2185 238.003 57.2185 236.765C57.2185 235.526 57.6748 234.809 58.6524 234.549H67.2558C68.1683 234.809 68.6246 235.526 68.6246 236.765C68.6246 238.003 68.1683 238.72 67.1906 238.981H65.105V250.973C65.3657 252.668 66.3433 254.102 67.7772 254.949C66.3433 255.797 65.3005 257.296 65.105 258.925V270.853H68.8201C70.254 270.592 71.5575 268.245 72.7307 263.879L72.8611 262.64C73.1218 261.728 73.8387 261.271 75.0771 261.271C76.3155 261.271 77.0324 261.728 77.2931 262.705V273.851C77.0324 274.828 76.3155 275.285 75.0771 275.285C73.8387 275.285 73.1218 274.828 72.8611 273.851V272.352C71.4924 274.437 70.1236 275.415 68.7549 275.219H58.7176C57.7399 274.959 57.2837 274.242 57.2837 273.003C57.2837 271.765 57.7399 271.048 58.7176 270.787H60.8033V258.86C60.4774 257.23 59.4997 255.797 58.0658 254.949Z" fill="#C99C49"/>
<path d="M82.1814 254.819C83.6153 253.972 84.6582 252.473 84.8537 250.843V238.916H82.8332C81.8555 238.655 81.3993 237.938 81.3993 236.7C81.3993 235.461 81.8555 234.744 82.8332 234.484H94.3044C96.9767 234.223 98.9972 236.243 100.301 240.545C101.604 244.847 102.256 248.301 102.256 250.778C102.452 252.473 103.429 253.906 104.928 254.754C103.429 255.666 102.452 257.165 102.256 258.86C102.256 261.337 101.669 264.791 100.301 269.093C98.9972 273.394 96.9767 275.415 94.3044 275.154H82.8332C81.8555 274.894 81.3993 274.177 81.3993 272.938C81.3993 271.7 81.8555 270.983 82.8332 270.722H84.8537V258.86C84.6582 257.165 83.6153 255.666 82.1814 254.819ZM94.2392 270.853C95.0213 270.983 95.8035 269.549 96.6508 266.616C97.3677 264.139 97.7588 261.532 97.8891 258.99C97.6936 257.296 96.7159 255.731 95.2169 254.884C96.6508 254.037 97.6936 252.538 97.8891 250.908C97.824 248.301 97.4329 245.759 96.6508 243.283C95.8686 240.284 95.0213 238.851 94.2392 239.046H89.2857V250.973C89.4813 252.668 90.4589 254.102 91.958 254.949C90.5241 255.797 89.5464 257.296 89.2857 258.925V270.918H94.2392V270.853Z" fill="#C99C49"/>
<path d="M126.176 270.852L124.351 258.208C123.895 256.644 122.722 255.34 121.157 254.689C122.461 253.711 123.243 252.212 123.243 250.582L121.548 238.85H119.463C118.485 238.59 118.029 237.873 118.029 236.634C118.029 235.396 118.485 234.679 119.463 234.418H128.066C128.979 234.679 129.435 235.396 129.435 236.634C129.435 237.873 128.979 238.59 128.001 238.85H125.915L127.545 250.582C127.871 251.951 128.979 253.059 130.347 253.45C129.174 254.298 128.522 255.601 128.522 257.035L130.543 270.461L135.105 238.85H133.085C132.107 238.59 131.651 237.873 131.651 236.634C131.651 235.396 132.107 234.679 133.02 234.418H141.623C142.601 234.679 143.057 235.396 143.057 236.634C143.057 237.873 142.601 238.59 141.623 238.85H139.537L144.1 270.461L146.12 257.035C146.12 255.601 145.403 254.298 144.295 253.45C145.664 253.059 146.707 251.951 147.033 250.582L148.662 238.85H146.577C145.599 238.59 145.143 237.873 145.143 236.634C145.143 235.396 145.599 234.679 146.511 234.418H155.115C156.092 234.679 156.549 235.396 156.549 236.634C156.549 237.873 156.092 238.59 155.115 238.85H153.094L151.4 250.582C151.465 252.212 152.247 253.711 153.485 254.689C151.921 255.275 150.748 256.579 150.292 258.208L148.467 270.852H150.552C151.53 271.113 151.986 271.83 151.986 273.069C151.986 274.307 151.53 275.024 150.552 275.285H143.252C141.232 275.415 140.059 273.916 139.733 270.852L137.321 254.167L134.91 270.852C134.584 273.916 133.411 275.35 131.39 275.285H124.09C123.113 275.024 122.656 274.307 122.656 273.069C122.656 271.83 123.113 271.113 124.09 270.852H126.176Z" fill="#C99C49"/>
<path d="M160.524 254.819C161.958 253.972 162.936 252.473 163.197 250.843V238.916H161.111C160.133 238.655 159.677 237.938 159.677 236.7C159.677 235.461 160.133 234.744 161.111 234.484H171.214C172.582 234.288 173.951 235.266 175.32 237.351V235.852C175.58 234.875 176.297 234.418 177.536 234.418C178.774 234.418 179.491 234.875 179.752 235.852V247.063C179.491 248.04 178.774 248.497 177.536 248.497C176.297 248.497 175.58 248.04 175.32 247.128L175.189 245.89C174.016 241.523 172.713 239.176 171.279 238.916H167.564V252.603H174.929C175.906 252.864 176.362 253.581 176.362 254.884C176.362 256.188 175.906 256.97 174.994 257.165H167.498V270.853H171.214C172.647 270.592 173.951 268.245 175.124 263.879L175.254 262.64C175.515 261.728 176.232 261.271 177.471 261.271C178.709 261.271 179.426 261.728 179.687 262.705V273.851C179.426 274.828 178.709 275.285 177.471 275.285C176.232 275.285 175.515 274.828 175.254 273.851V272.352C173.886 274.437 172.517 275.415 171.148 275.219H161.111C160.133 274.959 159.677 274.242 159.677 273.003C159.677 271.765 160.133 271.048 161.111 270.787H163.132V258.86C162.936 257.165 161.958 255.666 160.524 254.819Z" fill="#C99C49"/>
<path d="M195.59 258.925C194.938 258.534 194.286 258.143 193.765 257.817C192.461 257.426 191.027 257.687 189.398 258.534C189.593 256.774 189.268 255.406 188.42 254.428C187.312 253.646 186.269 252.798 185.227 251.886C184.314 251.039 183.858 250.257 183.923 249.474C183.988 247.649 184.64 244.586 185.944 240.35C187.182 236.113 189.202 234.093 191.875 234.418H192.918C194.286 234.223 195.655 235.201 197.024 237.286V235.787C197.284 234.81 198.001 234.353 199.24 234.353C200.478 234.353 201.195 234.81 201.456 235.787V246.998C201.195 247.975 200.478 248.432 199.24 248.432C198.001 248.432 197.284 247.975 197.024 247.063L196.893 245.824C195.72 241.458 194.417 239.111 192.983 238.85H191.94C191.158 238.72 190.376 240.219 189.528 243.348C188.746 246.476 188.355 248.432 188.42 249.083C188.29 249.409 189.202 250.257 191.093 251.69C192.526 252.212 194.091 252.147 195.459 251.495C195.394 252.798 195.72 254.037 196.437 255.08C197.61 255.862 198.718 256.709 199.826 257.687C200.934 258.664 201.456 259.512 201.391 260.294C201.325 262.119 200.674 265.182 199.37 269.419C198.132 273.655 196.111 275.676 193.439 275.35H192.396C191.027 275.545 189.659 274.568 188.29 272.482V273.981C188.029 274.959 187.312 275.415 186.074 275.415C184.836 275.415 184.119 274.959 183.858 273.981V262.771C184.119 261.793 184.836 261.337 186.074 261.337C187.312 261.337 188.029 261.793 188.29 262.705L188.42 263.944C189.593 268.311 190.897 270.657 192.331 270.918H193.374C194.156 271.048 194.938 269.549 195.785 266.42C196.567 263.292 196.958 261.337 196.893 260.685C196.958 260.098 196.502 259.577 195.59 258.925Z" fill="#C99C49"/>
<path d="M209.798 254.819C211.232 253.972 212.275 252.473 212.471 250.843V239.698C211.298 240.415 210.45 242.435 209.994 245.89L209.864 247.128C209.603 248.04 208.886 248.497 207.648 248.497C206.409 248.497 205.692 248.04 205.432 247.063V235.852C205.692 234.875 206.409 234.418 207.648 234.418C208.886 234.418 209.603 234.875 209.864 235.852V237.351C210.972 235.331 212.275 234.353 213.839 234.484H215.404C216.968 234.353 218.337 235.331 219.379 237.351V235.852C219.64 234.875 220.357 234.418 221.595 234.418C222.834 234.418 223.551 234.875 223.812 235.852V247.063C223.551 248.04 222.834 248.497 221.595 248.497C220.357 248.497 219.64 248.04 219.379 247.128L219.249 245.89C218.793 242.435 218.011 240.35 216.772 239.698V250.843C216.968 252.538 218.011 253.972 219.445 254.819C218.011 255.666 217.033 257.165 216.772 258.795V270.787H218.793C219.771 271.048 220.227 271.765 220.227 273.003C220.227 274.242 219.771 274.959 218.793 275.219H210.255C209.277 274.959 208.821 274.242 208.821 273.003C208.821 271.765 209.277 271.048 210.255 270.787H212.275V258.86C212.21 257.165 211.232 255.666 209.798 254.819Z" fill="#C99C49"/>
<path d="M82.1162 92.2669C43.2054 71.8013 28.5405 46.1866 36.8181 3.36519C37.2091 1.40987 39.1644 0.106324 41.1197 0.497387C41.7063 0.627741 42.2929 0.888451 42.7492 1.27951C43.5313 1.93129 43.9224 2.90895 43.9875 3.88661C47.1161 41.8849 75.0771 56.615 105.971 71.2147C109.23 72.7789 109.36 76.3637 106.167 78.1235C99.1275 81.9037 92.1535 86.2054 86.3527 91.6803C85.2447 92.8535 83.5501 93.049 82.1162 92.2669ZM136.995 161.55C138.364 164.679 139.863 167.807 141.493 170.805C142.21 171.979 142.275 173.413 141.558 174.586L135.627 184.819C135.04 186.057 133.737 186.839 132.368 186.839H98.9971C97.6936 186.839 96.5204 186.122 95.8686 185.014L89.9375 174.651C89.2205 173.543 89.2205 172.109 89.8071 170.936C91.5017 167.872 93.066 164.744 94.4347 161.485C83.8108 150.34 75.794 133.263 77.5538 117.621C64.3228 123.682 48.6803 117.882 42.6188 104.716C41.7715 102.891 41.1198 101.001 40.7287 99.0453C40.2724 96.8945 41.7063 95.1999 43.7268 94.6785C57.5444 91.2241 72.1441 93.5053 84.2019 101.066C88.6339 95.1347 94.8258 90.5071 101.018 86.5965C108.448 81.9689 116.399 77.9931 124.286 74.0825C139.081 66.7175 154.528 58.9614 166.651 47.425C179.165 35.4976 185.944 21.3541 187.377 4.08213C187.443 3.0393 187.834 2.12682 188.551 1.40987C189.202 0.823274 189.985 0.497387 190.832 0.497387C192.657 0.367033 194.286 1.67058 194.612 3.43036C196.111 10.8606 196.828 18.4211 196.763 25.9817C196.437 43.9054 190.701 59.2221 177.927 72.1272C165.152 85.0322 148.141 93.1142 131.977 100.805C121.679 105.759 109.686 111.168 100.952 118.599C111.316 136.196 106.232 155.619 97.2373 172.63L101.213 179.539H130.347L134.323 172.63C123.308 151.904 119.658 128.701 136.604 109.995C149.118 96.2427 169.193 90.3116 187.247 94.5481C189.528 95.0695 191.223 96.4383 190.701 98.9802C187.052 116.904 166.586 125.703 151.139 116.122C155.375 133.524 148.988 148.841 136.995 161.55ZM96.9114 75.0601C74.2298 64.1755 52.0043 51.6615 41.9671 27.0245C42.8795 55.507 58.7176 71.345 83.2894 84.7064C87.5259 81.0564 92.0883 77.8628 96.9114 75.0601ZM85.1795 126.615C92.6097 110.712 113.792 101.457 128.848 94.2874C144.295 86.9224 160.915 79.0359 172.908 66.5219C183.532 55.4418 188.616 42.5367 189.398 27.5459C184.901 38.5609 177.927 47.6205 168.867 55.507C156.679 66.0657 142.014 73.4307 127.61 80.6002C119.528 84.6412 111.185 88.6822 103.69 93.7008C91.6321 101.783 83.4849 111.429 85.1795 126.615ZM182.489 101.066C171.67 99.1757 160.59 101.327 151.269 107.062C158.634 114.558 170.692 114.688 178.253 107.323C180.012 105.498 181.446 103.412 182.489 101.066ZM95.6079 123.943C87.0697 134.437 88.6991 144.083 97.3025 153.794C100.235 143.757 100.496 133.524 95.6079 123.943ZM134.258 153.729C144.1 142.128 148.01 128.962 142.927 114.232C132.042 125.703 130.021 138.999 134.258 153.729ZM48.941 101.001C54.09 113.58 70.645 116.839 80.1609 107.062C70.8406 101.327 59.6953 99.1757 48.941 101.001Z" fill="url(#paint0_linear_1_23)"/>
<path d="M56.6971 285.257H60.6729C61.1944 285.257 61.6506 285.452 62.1068 285.843C62.4979 286.234 62.6934 286.625 62.6934 287.016V287.277C62.6934 287.538 62.8238 287.864 63.0193 288.19C63.2149 288.516 63.5407 288.776 63.997 288.841C63.5407 288.907 63.2149 289.102 63.0193 289.493C62.8238 289.754 62.6934 290.08 62.6934 290.536V291.253C62.6934 291.383 62.6283 291.579 62.5631 291.709C62.4327 291.97 62.2372 292.1 61.9765 292.231C62.172 292.361 62.3675 292.491 62.4979 292.687C62.6283 292.882 62.6934 293.078 62.6934 293.208V293.99C62.6934 294.316 62.8238 294.577 63.0193 294.903C63.28 295.294 63.6059 295.49 63.997 295.62C63.5407 295.685 63.2149 295.881 63.0193 296.206C62.8238 296.467 62.6934 296.793 62.6934 297.249V297.901C62.6934 298.423 62.4979 298.879 62.0417 299.335C61.6506 299.726 61.1292 299.922 60.6078 299.922H56.6971C56.5016 299.922 56.3061 299.791 56.1757 299.596C55.915 299.4 55.7846 299.139 55.7195 298.879C55.6543 299.074 55.4588 299.335 55.2632 299.596C55.1329 299.791 54.9373 299.922 54.7418 299.922H52.7213V296.663H54.7418V293.99C54.7418 293.534 54.6766 293.208 54.4811 292.948C54.2204 292.557 53.8945 292.361 53.4383 292.296C53.8945 292.231 54.2856 292.035 54.4811 291.644C54.6766 291.383 54.7418 291.057 54.7418 290.601V288.581H52.7865V285.257H54.6766C54.9373 285.257 55.1329 285.387 55.3284 285.583C55.5891 285.843 55.7195 286.039 55.7846 286.3C55.8498 286.039 55.9802 285.778 56.2409 285.583C56.3712 285.387 56.5016 285.257 56.6971 285.257ZM60.6729 288.581H56.6971V291.253H58.9783C59.5649 291.253 60.0212 291.188 60.2167 290.992C60.5426 290.797 60.6729 290.471 60.6729 290.08V288.581ZM59.3694 293.273H56.6971V296.598H60.6729V294.577C60.6729 294.251 60.5426 293.99 60.2167 293.665C59.956 293.404 59.6301 293.273 59.3694 293.273Z" fill="#C99C49"/>
<path d="M71.2968 294.642L70.5147 296.663H71.8834V299.987H70.5147C70.3192 299.987 70.1236 299.856 69.9281 299.661C69.6674 299.4 69.537 299.205 69.4719 298.944C69.4067 299.139 69.2763 299.335 69.0156 299.661C68.8201 299.856 68.6246 299.987 68.429 299.987H67.1255V296.663H68.429L68.8201 295.555C68.8853 295.424 68.8853 295.359 68.8853 295.294C68.8853 295.098 68.7549 294.838 68.5594 294.447C68.3639 294.121 68.1031 293.795 67.7773 293.665C67.7773 293.665 68.038 293.469 68.4942 293.143C68.6897 293.013 68.8853 292.817 69.2112 292.622C69.4719 292.361 69.7326 292.1 69.9933 291.84C70.1888 291.579 70.3192 291.253 70.4495 290.927L71.2968 288.646H70.5147V285.322H72.5352C72.7307 285.322 72.9263 285.452 73.0566 285.648C73.3173 285.908 73.4477 286.169 73.5129 286.365C73.578 286.169 73.7084 285.908 73.9691 285.648C74.1646 285.452 74.3602 285.322 74.5557 285.322H76.511V288.646H75.7289L76.511 290.927C76.7065 291.449 77.0324 292.035 77.5538 292.622C77.8146 292.948 78.0753 293.143 78.2708 293.273C78.4663 293.404 78.727 293.534 79.1833 293.665C79.1833 293.665 79.1181 293.73 79.0529 293.795C78.9878 293.86 78.9226 293.925 78.7922 293.99C78.6619 294.121 78.5315 294.251 78.4012 294.381C78.1404 294.838 78.0101 295.098 78.0101 295.294C78.0101 295.424 78.0101 295.49 78.0753 295.62L78.4663 296.663H79.8351V299.987H78.4663C78.2708 299.987 78.0753 299.856 77.9449 299.661C77.7494 299.465 77.5538 299.205 77.4887 298.944C77.4235 299.074 77.2931 299.335 77.0324 299.661C76.8369 299.856 76.6414 299.987 76.4458 299.987H75.1423V296.663H76.4458L75.7289 294.642H71.2968ZM73.578 288.581L72.0138 292.622H75.0771L73.578 288.581Z" fill="#C99C49"/>
<path d="M87.9822 293.273H86.6135V296.598H87.917V299.922H86.6135C86.4179 299.922 86.2224 299.791 86.0269 299.596C85.7662 299.335 85.6358 299.139 85.5706 298.879C85.5055 299.074 85.3751 299.27 85.1144 299.596C84.9189 299.791 84.7233 299.922 84.5278 299.922H83.1591V296.598H84.5278V293.925C84.5278 293.469 84.4626 293.143 84.2671 292.882C84.0064 292.491 83.6153 292.296 83.2243 292.231C83.6805 292.165 84.0064 291.97 84.2671 291.579C84.4626 291.318 84.5278 290.992 84.5278 290.536V288.516H83.2243V285.191H84.5278C84.7233 285.191 84.9189 285.322 85.1144 285.517C85.3751 285.778 85.5055 286.039 85.5706 286.234C85.6358 285.974 85.7662 285.713 86.0269 285.517C86.2224 285.322 86.4179 285.191 86.6135 285.191H89.9375C90.5241 285.191 90.9803 285.387 91.3714 285.778C91.7625 286.169 91.958 286.625 91.958 287.212V287.864C91.958 288.32 92.0232 288.646 92.2187 288.907C92.4794 289.298 92.8705 289.493 93.3267 289.558C92.8705 289.624 92.5446 289.819 92.2187 290.145C92.0232 290.406 91.958 290.732 91.958 291.123C91.958 291.449 91.8928 291.709 91.8277 291.84C91.7625 291.97 91.6973 292.1 91.5018 292.296C91.1759 292.557 90.85 292.752 90.5241 292.882C90.9804 293.078 91.3062 293.404 91.6321 293.86C91.8928 294.316 91.958 294.707 91.958 294.968V296.598H93.2615V299.922H89.9375V295.229C89.9375 294.838 89.742 294.447 89.2857 293.99C89.025 293.73 88.8295 293.534 88.634 293.469C88.5036 293.339 88.2429 293.273 87.9822 293.273ZM89.8723 291.253V288.581H86.6135V291.253H89.8723Z" fill="#C99C49"/>
<path d="M106.753 296.663H109.426V299.987H108.057C107.861 299.987 107.666 299.856 107.535 299.661C107.275 299.4 107.144 299.205 107.079 298.944C107.014 299.074 106.884 299.335 106.623 299.661C106.427 299.922 106.101 300.052 105.645 300.052C105.385 300.052 105.189 299.987 104.993 299.922C104.798 299.791 104.733 299.661 104.733 299.465V296.923C104.733 296.467 104.668 296.141 104.472 295.881C104.146 295.49 103.82 295.294 103.429 295.294C103.82 295.294 104.146 295.098 104.472 294.642C104.668 294.381 104.733 294.056 104.733 293.599C104.733 293.273 104.733 293.078 104.798 292.882C104.863 292.752 104.993 292.557 105.124 292.426C105.385 292.165 105.776 292.1 106.427 292.1H108.383L106.884 288.45V285.387H107.47C107.666 285.387 107.861 285.517 107.992 285.713C108.252 285.974 108.383 286.234 108.448 286.43C108.513 286.234 108.643 285.974 108.904 285.713C109.1 285.517 109.295 285.387 109.491 285.387H114.053V289.428H112.684V288.711H109.1L110.468 292.1H111.902C111.902 292.231 111.967 292.361 112.098 292.622C112.293 292.948 112.554 293.078 112.945 293.078C112.619 293.078 112.293 293.273 112.098 293.599C111.967 293.73 111.902 293.925 111.902 294.121H111.316L112.424 296.793H116.074V300.117H114.77C114.575 300.117 114.379 299.987 114.249 299.791C114.053 299.596 113.858 299.335 113.792 299.074C113.727 299.205 113.597 299.465 113.336 299.791C113.141 299.987 112.815 300.117 112.424 300.117C112.228 300.117 112.033 300.117 111.902 300.052C111.772 299.987 111.707 299.987 111.707 299.922L109.36 294.121H106.884V296.663H106.753Z" fill="#C99C49"/>
<path d="M127.675 299.27C127.414 299.009 127.219 298.814 127.154 298.618C127.023 298.422 126.958 298.162 126.958 297.966V293.99C126.958 293.534 126.893 293.208 126.697 292.948C126.437 292.557 126.046 292.361 125.589 292.296C126.046 292.231 126.372 292.035 126.697 291.644C126.893 291.383 126.958 291.057 126.958 290.601V287.277C126.958 286.821 127.154 286.365 127.61 285.908C128.066 285.452 128.522 285.257 128.979 285.257H132.238C132.433 285.257 132.629 285.387 132.824 285.583C133.085 285.843 133.215 286.104 133.28 286.3C133.346 286.104 133.476 285.843 133.737 285.583C133.932 285.387 134.128 285.257 134.323 285.257H134.975V289.949H133.606V288.581H128.979V290.536C128.979 290.927 129.109 291.253 129.305 291.514C129.565 291.905 129.891 292.1 130.282 292.231C129.891 292.296 129.5 292.491 129.305 292.817C129.109 293.078 128.979 293.469 128.979 293.86V296.598H133.606V293.208H131.586V291.905H135.562V293.208H134.91V299.922H134.258C134.062 299.922 133.867 299.791 133.671 299.596C133.411 299.335 133.28 299.074 133.215 298.879C133.15 299.074 133.02 299.335 132.759 299.596C132.629 299.791 132.433 299.922 132.172 299.922H128.848C128.588 299.987 128.131 299.726 127.675 299.27Z" fill="#C99C49"/>
<path d="M143.709 293.273H142.34V296.598H143.644V299.922H142.34C142.144 299.922 141.949 299.791 141.753 299.596C141.493 299.335 141.362 299.139 141.297 298.879C141.232 299.074 141.102 299.27 140.841 299.596C140.645 299.791 140.45 299.922 140.254 299.922H138.951V296.598H140.32V293.925C140.32 293.469 140.254 293.143 140.059 292.882C139.798 292.491 139.407 292.296 139.016 292.231C139.472 292.165 139.798 291.97 140.059 291.579C140.254 291.318 140.32 290.992 140.32 290.536V288.516H139.016V285.191H140.32C140.515 285.191 140.711 285.322 140.906 285.517C141.167 285.778 141.297 286.039 141.362 286.234C141.428 285.974 141.558 285.713 141.819 285.517C142.014 285.322 142.21 285.191 142.405 285.191H145.729C146.316 285.191 146.772 285.387 147.163 285.778C147.554 286.169 147.75 286.625 147.75 287.212V287.864C147.75 288.32 147.815 288.646 148.01 288.907C148.271 289.298 148.662 289.493 149.118 289.558C148.662 289.624 148.336 289.819 148.01 290.145C147.815 290.406 147.75 290.732 147.75 291.123C147.75 291.449 147.685 291.709 147.619 291.84C147.554 291.97 147.489 292.1 147.293 292.296C146.968 292.557 146.642 292.752 146.316 292.882C146.772 293.078 147.098 293.404 147.424 293.86C147.685 294.316 147.75 294.707 147.75 294.968V296.598H149.053V299.922H145.729V295.229C145.729 294.838 145.534 294.447 145.077 293.99C144.817 293.73 144.621 293.534 144.426 293.469C144.165 293.339 143.969 293.273 143.709 293.273ZM145.599 291.253V288.581H142.34V291.253H145.599Z" fill="#C99C49"/>
<path d="M156.418 294.121V296.663H157.787V299.987H156.418C156.223 299.987 156.027 299.856 155.897 299.661C155.701 299.465 155.506 299.205 155.441 298.944C155.375 299.074 155.245 299.335 154.984 299.661C154.789 299.856 154.658 299.987 154.398 299.987H153.029V296.663H154.398V294.121C154.398 293.665 154.333 293.339 154.137 293.013C153.876 292.557 153.485 292.361 153.029 292.296C153.485 292.231 153.811 291.97 154.137 291.514C154.333 291.253 154.398 290.862 154.398 290.406V288.581H153.029V285.257H154.398C154.593 285.257 154.789 285.387 154.984 285.583C155.245 285.843 155.375 286.104 155.441 286.3C155.506 286.039 155.636 285.778 155.897 285.583C156.092 285.387 156.288 285.257 156.418 285.257H157.787V288.581H156.418V290.406C156.418 290.862 156.483 291.253 156.679 291.514C157.005 291.97 157.331 292.231 157.722 292.296C157.331 292.296 156.94 292.557 156.679 293.013C156.549 293.208 156.418 293.599 156.418 294.121Z" fill="#C99C49"/>
<path d="M165.413 293.925V296.598H169.389V295.294H170.692V299.922H170.106C169.91 299.922 169.714 299.791 169.519 299.596C169.323 299.4 169.128 299.139 169.063 298.879C168.998 299.074 168.867 299.335 168.606 299.596C168.476 299.791 168.281 299.922 168.02 299.922H165.413C165.217 299.922 165.022 299.791 164.891 299.596C164.696 299.4 164.5 299.139 164.435 298.879C164.37 299.074 164.24 299.335 163.979 299.596C163.849 299.791 163.653 299.922 163.457 299.922H161.437V296.663H163.457V293.99C163.457 293.534 163.392 293.208 163.197 292.948C162.936 292.557 162.61 292.361 162.154 292.296C162.61 292.231 162.936 292.035 163.197 291.644C163.392 291.383 163.457 291.057 163.457 290.601V288.581H161.502V285.257H163.457C163.653 285.257 163.849 285.387 163.979 285.583C164.24 285.778 164.37 286.039 164.435 286.3C164.5 286.039 164.631 285.778 164.891 285.583C165.087 285.387 165.282 285.257 165.413 285.257H167.368V288.581H165.413V290.601C165.413 291.057 165.478 291.383 165.673 291.644C165.934 292.035 166.325 292.231 166.716 292.296C166.26 292.296 165.934 292.491 165.673 292.948C165.478 293.208 165.413 293.534 165.413 293.925Z" fill="#C99C49"/>
<path d="M178.122 293.925V296.598H182.098V295.294H183.402V299.922H182.815C182.62 299.922 182.424 299.791 182.228 299.596C182.033 299.4 181.837 299.139 181.772 298.879C181.707 299.074 181.577 299.335 181.316 299.596C181.186 299.791 180.99 299.922 180.729 299.922H178.122C177.927 299.922 177.731 299.791 177.601 299.596C177.405 299.4 177.21 299.139 177.145 298.879C177.079 299.074 176.949 299.335 176.688 299.596C176.558 299.791 176.363 299.922 176.167 299.922H174.147V296.663H176.167V293.99C176.167 293.534 176.102 293.208 175.906 292.948C175.646 292.557 175.32 292.361 174.863 292.296C175.32 292.231 175.646 292.035 175.906 291.644C176.102 291.383 176.167 291.057 176.167 290.601V288.581H174.212V285.257H176.167C176.363 285.257 176.558 285.387 176.688 285.583C176.949 285.778 177.079 286.039 177.145 286.3C177.21 286.039 177.34 285.778 177.601 285.583C177.796 285.387 177.992 285.257 178.122 285.257H180.078V288.581H178.122V290.601C178.122 291.057 178.187 291.383 178.383 291.644C178.644 292.035 179.035 292.231 179.426 292.296C178.97 292.296 178.644 292.491 178.383 292.948C178.253 293.208 178.122 293.534 178.122 293.925Z" fill="#C99C49"/>
<defs>
<linearGradient id="paint0_linear_1_23" x1="115.676" y1="0.428009" x2="115.676" y2="186.839" gradientUnits="userSpaceOnUse">
<stop stop-color="#C08C41"/>
<stop offset="1" stop-color="#E4CC6B"/>
</linearGradient>
</defs>
</svg>
